PathFileType	4	(X/Y/Z)	D:\TRACE\v60_Jaco2_6-2-23\BothDRS_Motion1_7-v60.trc
DataRate	CameraRate	NumFrames	NumMarkers	Units	OrigDataRate	OrigDataStartFrame	OrigNumFrames
100.00	100.00	      24	9	mm	100.00	6563	      7500
Frame#	Time	front left toe			Front right toe			aft left toe			aft right toe			Arm			FL body			FR body			AL Body			AR Body			
		X1	Y1	Z1	X2	Y2	Z2	X3	Y3	Z3	X4	Y4	Z4	X5	Y5	Z5	X6	Y6	Z6	X7	Y7	Z7	X8	Y8	Z8	X9	Y9	Z9	

6563	65.620	-176.64233	27.84176	-195.27489	176.29469	25.18812	-262.83878	-149.52928	2.37968	391.84061	270.19504	7.69874	383.75305	54.76272	1139.51990	-563.96246	-85.02516	585.77521	-349.15018	73.77608	582.58826	-365.01691	8.83160	554.81403	589.03705	167.17867	547.62866	577.21570	
6564	65.630	-174.57159	26.58459	-192.73819	176.56828	28.60389	-262.19833	-148.51346	5.41369	392.25476	270.66006	6.09547	386.90753	56.51738	1140.75610	-562.19098	-84.04279	586.79657	-347.86111	75.18817	583.27155	-364.13162	10.77285	555.91833	591.89972	168.38930	548.09320	578.60565	
6565	65.640	-175.40340	27.66496	-193.61217	174.46249	32.70756	-258.23587	-145.00154	8.52239	394.63486	270.85864	5.18716	385.37961	58.23954	1141.78284	-560.49084	-83.35277	587.95105	-347.10580	75.73669	584.42456	-362.87601	11.76210	555.61505	592.67383	172.02435	548.94507	580.74164	
6566	65.650	-175.65091	27.78172	-194.17685	172.40141	39.36269	-255.05688	-140.40540	15.12657	396.53867	271.07993	5.12002	385.46326	59.81578	1143.19641	-558.72119	-82.38417	588.48401	-346.15860	76.59547	585.24054	-362.72855	12.65286	554.69354	593.16345	170.46912	548.29999	581.72089	
6567	65.660	-175.64619	26.77635	-193.46918	172.03961	48.94172	-253.50577	-136.39671	24.30413	396.11752	270.94568	4.64348	386.04147	60.94298	1144.43665	-557.29230	-81.67249	589.03467	-345.57675	77.35374	585.53717	-361.96625	13.32555	554.36298	593.56439	164.70984	545.60199	579.05487	
6568	65.670	-176.02292	26.47910	-193.54112	172.46576	61.36851	-253.60391	-133.35776	34.90672	396.03943	271.00482	4.42064	385.56558	61.80968	1145.19897	-555.88385	-81.48009	589.20844	-345.32880	77.46838	585.49872	-361.88211	14.02529	553.70813	594.62573	174.69698	547.69067	582.60608	
6569	65.680	-176.03540	26.40019	-193.49554	174.71642	74.44809	-254.03743	-132.71289	47.38762	394.89560	271.11407	4.08510	385.76389	62.93599	1145.53235	-554.76086	-80.73031	589.51343	-344.53589	78.22419	585.67126	-360.90482	15.04447	552.99713	595.15485	169.58505	543.18921	579.23206	
6570	65.690	-176.04147	26.44423	-193.38612	176.83595	87.45713	-254.63243	-133.51726	59.81764	395.01239	271.21750	3.77309	385.81335	63.57714	1145.44983	-554.08356	-80.40632	589.48083	-344.18103	79.16158	585.90558	-360.93512	15.57826	551.63177	595.50494	170.24562	541.87610	579.35400	
6571	65.700	-176.12869	26.46168	-193.37550	180.34743	100.81985	-254.53355	-132.55307	71.38339	396.11911	271.28674	3.63343	385.82730	64.05063	1145.13184	-553.04932	-79.94815	589.59644	-343.86124	78.97923	585.96014	-360.34103	15.99872	550.57635	595.88812	170.61592	540.99048	580.39612	
6572	65.710	-176.21408	26.34636	-193.36485	183.43646	113.07523	-254.21100	-132.74564	84.23212	397.09219	271.21393	3.66148	385.83295	64.02174	1145.10095	-552.56317	-79.59457	589.47559	-343.60004	79.50303	585.75958	-359.97095	16.30618	549.37274	595.55469	170.91515	540.10211	580.65881	
6573	65.720	-176.51956	26.26488	-193.42131	186.91925	125.22717	-252.94725	-131.87177	95.79477	398.23361	271.02963	3.49904	385.85989	64.39911	1145.24414	-551.92065	-78.99496	589.22870	-343.18158	80.39626	584.94208	-359.15674	16.45438	548.64264	596.28070	171.47565	539.33844	580.90967	
6574	65.730	-176.67006	26.20738	-193.39444	189.52834	136.12532	-251.68867	-130.02475	106.31132	399.61026	270.89725	3.40459	385.93378	64.64661	1145.36304	-551.29303	-78.53917	588.88550	-343.00424	80.70989	584.73712	-359.11664	16.54237	548.35596	596.57220	171.41635	538.64075	581.27545	
6575	65.740	-176.78697	26.25613	-193.31689	191.88675	145.42566	-250.29480	-128.50725	115.36554	400.37659	270.90173	3.23370	386.09769	65.25404	1145.04285	-550.89392	-78.10176	588.56458	-342.90765	81.33987	584.38684	-359.23080	16.92712	547.77631	596.48767	170.67381	538.19574	581.61157	
6576	65.750	-176.91652	26.26344	-193.24161	194.64035	151.60609	-248.17075	-127.52402	122.71127	401.55902	270.92923	3.06648	386.24008	66.45134	1144.31177	-550.72266	-77.74799	588.24878	-342.72305	81.85496	584.23743	-358.98172	16.24310	547.34625	596.73834	171.55954	537.29083	581.11414	
6577	65.760	-176.91672	26.23790	-193.18784	197.52400	155.62013	-246.35788	-127.40565	127.54382	402.93326	271.01483	3.01726	386.36508	67.27121	1143.49536	-550.60114	-77.33705	587.83801	-342.39096	82.11681	584.06543	-358.68512	16.80543	547.02679	597.38617	171.68349	537.43732	582.22290	
6578	65.770	-176.89174	26.25684	-193.11584	200.83759	156.52060	-243.96680	-127.17455	129.31882	404.62970	271.04932	2.94596	386.47525	67.99165	1143.29590	-550.50732	-76.54481	587.65265	-342.02283	82.39809	583.80212	-358.15854	16.92541	546.76392	597.18018	171.75290	537.47906	582.43127	
6579	65.780	-176.79402	26.53208	-193.01328	204.22478	154.81671	-241.37004	-126.66284	127.75801	406.98642	271.11783	2.88594	386.68912	68.74686	1143.03552	-550.35406	-76.26415	587.50800	-341.84366	82.71843	583.63208	-357.82516	17.06902	547.08545	597.89386	171.83212	537.55927	582.64886	
6580	65.790	-176.72368	26.68665	-193.01445	207.37151	151.26665	-238.73503	-125.66228	123.16032	409.25357	271.11734	2.84802	386.85577	69.20671	1142.90222	-550.23230	-76.03487	587.50787	-341.68695	83.20381	583.53552	-357.51212	17.17893	547.28253	598.15027	171.75653	537.34515	582.30164	
6581	65.800	-176.80727	26.84159	-192.91501	209.32341	145.89679	-236.54263	-124.44467	118.51780	411.03653	271.01004	2.75727	386.94376	69.54302	1142.83765	-550.08820	-75.68817	587.47919	-341.57742	83.47800	583.50293	-357.38541	17.12799	547.47382	598.31757	171.69955	537.35828	582.47125	
6582	65.810	-176.81508	26.84635	-192.86769	211.46742	139.89444	-234.54652	-123.64617	112.97227	412.90439	270.88580	2.65426	387.04965	69.85178	1142.80615	-549.99426	-75.35033	587.47040	-341.47253	83.65768	583.47168	-357.29260	17.19739	547.34314	598.42731	171.72490	537.26154	582.62244	
6583	65.820	-176.75729	26.81582	-192.86758	212.53358	131.98936	-233.05803	-122.66923	106.40177	414.79095	270.75476	2.47636	387.12143	70.23806	1142.93616	-549.87677	-75.38118	587.53131	-341.41837	83.72376	583.65814	-357.27148	17.41455	547.19775	598.49670	171.87721	537.10144	582.77045	
6584	65.830	-176.78625	26.94852	-192.81070	213.76276	123.49692	-232.20557	-120.40434	98.29295	416.72919	270.70840	2.39110	387.16525	70.67162	1143.12524	-549.74384	-75.38531	587.80682	-341.41971	83.70041	583.84674	-357.26959	17.72754	547.13745	598.50452	172.14957	537.10681	582.77057	
6585	65.840	-176.84273	27.12241	-192.77229	215.67311	114.18530	-231.66077	-119.80367	90.40731	418.00644	270.54517	2.24405	387.17145	70.95589	1143.73328	-549.57996	-75.41633	588.04962	-341.54675	83.62992	584.01703	-357.34579	18.20913	547.09644	598.39697	172.63698	537.03925	582.57471	
6586	65.850	-176.89391	27.18694	-192.71945	217.08441	103.96798	-231.25343	-118.64746	81.27618	419.41956	270.42972	2.03417	387.11996	71.19746	1144.30542	-549.43097	-75.69775	588.25873	-341.58401	83.48562	584.17560	-357.42801	18.43265	546.98431	598.27393	172.96133	536.80261	582.22882	
